<svg xmlns="http://www.w3.org/2000/svg" width="98.26" height="74.31" viewBox="0 0 98.26 74.31">
	<style type="text/css">
		.st2{fill:#8bc334;}
		.st1{fill:#f9b43b;}
		.st0{fill:#e55028;}
	</style>
	<path class="st0" d="M70.09,32.87C69.14,34.15 67.57,34.94 65.7,35.02C63.01,35.15 61.7,32.81 61.47,27.84C61.28,23.62 62.17,15.53 62.03,12.4L61.92,10.15C61.03,10.2 56.86,27.68 54.61,30.78C53.95,31.79 52.83,32.7 51.44,32.77C48.27,32.91 46.08,29.34 45.83,23.82C45.66,20.19 46.32,13.5 45.97,5.88C45.93,5.06 45.76,4.73 45.62,4.73C42.63,4.87 35.96,24.98 35.64,35.03C35.6,36.5 35.86,38.95 36.22,40.25C32.61,40 28.76,39.96 28.59,36.33C28.43,33.01 30.16,25.93 32.23,19.65C33.68,15.28 39.27,0.27 45.17,0C51.71,-0.29 50.95,11.52 51.46,22.69C51.55,24.48 51.61,25.79 51.84,26.76C57.98,8.95 59.12,3.69 62.78,3.53C64.87,3.43 66.49,6.16 66.66,9.82C66.76,11.95 66.74,16.26 66.86,18.87C67.41,30.64 68.62,30.21 70.09,32.87"/>
	<path class="st0" d="M90.09,15.69C90.04,18.05 83.91,27.65 78.09,27.53C74.89,27.46 73.29,25.39 73.35,22.66C73.4,20.3 74.54,17.92 75.4,16.37C69.82,15.41 69.14,12.82 69.17,11.36C69.23,8.45 72.03,6.98 73.81,7.01C75.23,7.04 75.65,8.21 75.63,8.98C75.61,9.85 75.23,10.9 74.62,12.16C77.37,12.84 81.89,12.89 81.84,15.04C81.8,17.01 78.49,20.25 78.44,22.91C78.42,23.89 78.84,24.45 79.61,24.46C82.67,24.53 86.59,17.62 88.37,14.23C89.64,14.47 90.11,14.96 90.09,15.69"/>
	<path class="st1" d="M94.03,41.44C93.99,43.16 89.53,50.15 85.28,50.07C82.95,50.02 81.78,48.51 81.83,46.52C81.86,44.79 82.69,43.06 83.33,41.93C79.25,41.24 78.76,39.34 78.78,38.29C78.83,36.16 80.87,35.09 82.17,35.12C83.2,35.14 83.5,35.99 83.49,36.55C83.48,37.19 83.2,37.95 82.75,38.87C84.76,39.36 88.05,39.4 88.01,40.97C87.99,42.4 85.58,44.76 85.54,46.7C85.52,47.42 85.83,47.82 86.39,47.83C88.62,47.88 91.48,42.84 92.78,40.37C93.7,40.55 94.04,40.91 94.03,41.44"/>
	<path class="st1" d="M94.71,58.9C94.68,60.26 91.16,65.77 87.82,65.7C85.98,65.66 85.06,64.47 85.1,62.91C85.12,61.55 85.78,60.18 86.28,59.3C83.07,58.75 82.68,57.26 82.7,56.42C82.74,54.75 84.34,53.91 85.36,53.93C86.18,53.94 86.42,54.62 86.41,55.06C86.4,55.56 86.18,56.16 85.83,56.88C87.41,57.27 90,57.3 89.97,58.54C89.95,59.66 88.05,61.53 88.02,63.05C88.01,63.62 88.25,63.93 88.69,63.94C90.45,63.98 92.7,60.01 93.72,58.07C94.45,58.21 94.72,58.49 94.71,58.9"/>
	<path class="st2" d="M88.91,25.68C88.95,23.7 91.11,22.24 93.67,22.29C96.29,22.34 98.29,23.6 98.26,25.19C98.21,27.76 95.59,30.32 92.98,30.27C90.36,30.21 88.88,27.18 88.91,25.68"/>
	<path class="st1" d="M50.9,68.48C50.92,67.23 52.27,66.32 53.88,66.36C55.51,66.39 56.76,67.17 56.74,68.17C56.71,69.77 55.07,71.37 53.44,71.34C51.81,71.31 50.88,69.41 50.9,68.48"/>
	<path class="st0" d="M30.21,46.8C30.24,45.56 31.59,44.64 33.19,44.68C34.82,44.71 36.08,45.49 36.06,46.49C36.03,48.1 34.39,49.7 32.76,49.66C31.12,49.63 30.19,47.73 30.21,46.8"/>
	<path class="st1" d="M60.52,55.99C60.46,58.98 57.96,62.67 51.92,62.55C48.48,62.48 46.03,60.84 46.06,59.1C46.07,58.59 46.41,58.12 46.96,57.8C47.87,58.36 49,58.95 51.15,59C54.53,59.07 56.11,56.74 56.16,54.4C56.2,52.13 54.83,50.48 52.8,50.38C51.06,50.34 49.47,50.34 48.29,51.01C47.31,50.66 46.85,49.96 46.86,49.3C46.89,48.04 47.91,47.56 49.23,47.58C49.8,47.59 50.4,47.7 50.99,47.86C53.1,47.12 56.23,44.85 56.3,41.62C56.35,38.87 54.02,37.14 50.17,37.07C49.36,37.05 48.52,37.12 47.65,37.22C47.85,37.56 47.96,37.89 47.96,38.22C44.07,45.44 43.37,60.39 46.06,65.15C45.66,65.59 43.74,65.79 42.87,65.77C40.72,65.73 39.34,64.44 39.11,62.34C38.26,55.8 40.44,45.61 42.31,40.56C42.57,39.75 42.85,39.1 43.16,38.51C41.74,39.11 40.5,39.89 39.58,40.74C38.6,40.45 37.93,39.81 37.94,39.18C37.94,38.97 38.01,38.79 38.13,38.58C38.81,37.43 43.96,34.48 50.75,34.62C59.58,34.8 62.01,38.81 61.96,41.44C61.88,45.24 57.79,47.91 54.71,48.77C58.62,49.75 60.59,52.97 60.52,55.99"/>
	<path class="st1" d="M84.26,41.92C84.24,43.15 79.58,51.16 75.13,51.07C73.31,51.03 72.15,50.03 71.77,47.94C70.47,49.51 68.72,50.97 66.77,50.93C64.49,50.88 63.38,49.43 63.44,46.7C63.46,45.59 63.73,43.39 63.78,41.14C63.81,39.68 63.76,38.93 63.55,37.85C64.5,37.71 65.41,37.56 66.33,37.58C67.92,37.61 68.59,38.41 68.55,40.23C68.53,41.3 68.18,43.9 68.14,45.69C68.12,46.93 68.33,47.42 68.69,47.42C69.18,47.43 70.47,46.61 71.71,44.72C71.84,43.32 72.03,41.86 72.06,40.63C72.08,39.46 72,38.57 71.81,38.05C72.37,37.96 73.02,37.88 73.61,37.89C75.69,37.94 76.61,39.03 76.56,41.6C76.54,42.44 76.11,44.68 76.07,46.24C76.04,47.74 76.22,48.46 76.81,48.47C77.91,48.49 81.08,44.59 82.63,40.75C83.41,40.53 84.29,40.91 84.26,41.92"/>
	<path class="st1" d="M67.21,66.05C65.61,67.93 64.58,70.07 64.54,72.05C64.53,72.57 64.65,72.91 64.94,72.92C66.07,72.94 66.91,69.03 67.21,66.05M77.2,60.89C74.94,60.97 72.69,61.8 70.73,63.04L70.72,63.75C70.64,67.64 69.05,74.4 64.86,74.31C63.13,74.28 62.17,73.23 62.2,71.41C62.26,68.6 64.5,65.6 67.39,63.34C67.4,63.16 67.4,63.02 67.38,62.89C66.53,63.76 65.59,64.18 64.58,64.16C62.92,64.13 61.98,62.98 62.02,61.04C62.08,58.1 65.25,55.3 68.29,55.36C69.3,55.38 70.29,55.8 70.28,56.61C70.26,57.22 69.62,57.6 68.29,57.91C68.12,57.49 67.91,57.32 67.69,57.31C66.63,57.29 65.31,59.59 65.28,61.16C65.27,61.85 65.46,62.12 65.75,62.12C66.39,62.14 67.45,60.66 67.11,59.34C68.3,58.57 68.62,58.58 69.08,58.59C70.11,58.61 70.56,59.31 70.7,61.22C72.6,60.26 74.57,59.68 76.24,59.72C76.85,59.73 77.38,60.11 77.2,60.89"/>
	<path class="st1" d="M77.05,60.84C77.04,61.3 77.06,61.74 77.12,62.14C77.9,61.34 78.5,60.43 78.53,59.3C78.54,58.76 78.35,58.39 78.13,58.38C77.66,58.37 77.08,59.59 77.05,60.84M87.72,60.52C87.69,61.69 83.6,67.86 79.04,67.77C75.59,67.69 73.14,65.24 73.21,61.89C73.27,58.65 75.38,56.12 78.03,56.18C79.91,56.22 81.02,57.44 80.98,59.45C80.93,61.6 79.26,63.16 77.79,64.14C78.26,64.93 78.94,65.39 79.77,65.4C81.66,65.44 84.18,63.14 86.09,59.72C87.08,59.43 87.73,59.71 87.72,60.52"/>
</svg>