<svg xmlns="http://www.w3.org/2000/svg" width="96.42" height="89.24" viewBox="0 0 96.42 89.24">
	<style type="text/css">
		.st0{fill:#e35028;}
	</style>
	<path class="st0" d="M38.47,4.84C38.47,4.84 38.47,4.84 38.46,4.84L38.47,4.84Z"/>
	<path class="st0" d="M17.72,9.87C17.76,9.98 17.95,10.14 18.02,10.12C18.15,10.07 18.34,9.93 18.35,9.81C18.47,8.81 18.1,7.95 17.52,7.05C17.37,7.64 16.9,8.03 17.23,8.63C17.44,9.01 17.54,9.46 17.72,9.87"/>
	<path class="st0" d="M28.19,14.11C28.37,13.64 28.55,13.17 28.67,12.84C28.35,12.77 28.35,12.77 28.32,11.63C27.93,11.5 27.53,11.44 27.63,12.04C27.74,12.75 27.48,13.08 26.76,13.19C27.16,13.37 27.56,13.55 27.95,13.72C28.03,13.85 28.11,13.98 28.19,14.11"/>
	<path class="st0" d="M31.98,11.61C32.05,11.61 32.15,11.57 32.2,11.51C32.47,11.21 32.29,10.13 31.98,9.84C31.83,9.7 31.75,9.45 31.68,9.24C31.63,9.09 31.67,8.92 31.67,8.75C31.59,8.75 31.51,8.76 31.43,8.76L31.43,10.43C31.53,10.71 31.67,11.1 31.81,11.47C31.83,11.53 31.92,11.61 31.98,11.61"/>
	<path class="st0" d="M32.21,12.51C31.57,12.71 31.83,11.99 31.68,11.92C31.35,12.35 31.05,12.73 30.76,13.11C30.78,13.16 30.8,13.2 30.82,13.25C31.28,13 31.75,12.75 32.21,12.51"/>
	<path class="st0" d="M21.22,18.75C21.18,18.35 21.21,17.93 21.13,17.91C20.84,17.83 20.52,17.89 20.2,17.9C20.21,17.96 20.21,18.02 20.22,18.08C20.48,18.26 20.75,18.44 21.22,18.75"/>
	<path class="st0" d="M28.42,16.34C28.39,16.25 28.37,16.17 28.34,16.08C27.77,16.25 27.2,16.41 26.63,16.58C26.66,16.68 26.7,16.79 26.73,16.89C27.29,16.71 27.86,16.52 28.42,16.34"/>
	<path class="st0" d="M31.34,20.75C31.54,19.7 31.34,19.31 30.75,19.41C30.86,19.64 30.97,19.87 31.07,20.1C31.17,20.31 31.25,20.53 31.34,20.75"/>
	<path class="st0" d="M23.36,18.16C23.37,18.07 23.38,17.98 23.39,17.9C22.92,17.87 22.45,17.84 21.99,17.81C21.98,17.89 21.97,17.97 21.96,18.05C22.4,18.31 22.89,18.19 23.36,18.16"/>
	<path class="st0" d="M19.43,14.97C19.45,14.93 19.23,14.74 19.14,14.63C18.94,15.11 18.78,15.48 18.62,15.88C19.33,15.97 19.21,15.3 19.43,14.97"/>
	<path class="st0" d="M75.77,44.04C74.74,44.44 74.55,46.4 75.34,48.42C76.14,50.43 77.61,51.73 78.64,51.33C79.67,50.92 79.86,48.96 79.07,46.95C78.27,44.94 76.8,43.63 75.77,44.04"/>
	<path class="st0" d="M85.93,53C86.92,52.61 87.88,52.23 88.89,51.84C88.29,49.07 87.44,46.4 86.32,43.85C86.18,44.17 86.05,44.48 85.91,44.79C85.36,44.1 84.58,43.49 84.3,42.7C83.9,41.53 83.87,40.24 83.67,38.96C83.71,38.96 83.74,38.97 83.78,38.97C83.28,38.15 82.75,37.33 82.18,36.53C81.94,36.84 81.7,37.13 81.44,37.46C81.68,37.7 82.06,38.06 82.94,38.91C82.01,39.07 81.16,39.23 80.34,39.37C83.11,43.54 84.99,48.09 85.93,53"/>
	<path class="st0" d="M73.62,28.6C69.39,26.51 65.64,28.31 64.28,32.77C61.26,42.63 69.96,63.29 79.19,68.18C83.42,70.42 87.12,69.12 89.29,63.76C89.41,62.51 89.98,60.19 89.8,57.93C89.65,56.17 89.42,54.45 89.09,52.76C88.07,53.64 87.09,54.1 86.13,54.12C86.41,55.88 86.57,57.7 86.61,59.55C86.66,59.73 86.71,59.91 86.77,60.06C86.72,60.06 86.67,60.05 86.62,60.05C86.62,61.97 85.69,64.81 84.33,65.5C83,66.17 79.94,65.18 78.65,63.9C70.86,56.18 66.62,46.77 67.05,35.68C67.12,33.86 67.57,32.57 68.33,31.78C67.92,31.39 67.51,31 67.09,30.6C68.16,29.95 69.01,30.06 69.67,31.01C70.64,30.76 71.86,30.95 73.29,31.59C73.8,32 74.8,32.63 75.59,33.46C76.49,34.4 77.33,35.36 78.12,36.35C78.78,35.86 79.8,35.58 81.35,35.39C80.66,34.48 79.93,33.59 79.15,32.72C77.65,31.03 75.66,29.61 73.62,28.6"/>
	<path class="st0" d="M52.9,42.56C52.92,42.68 52.96,42.81 52.99,42.93C53.6,42.85 54.21,42.77 54.82,42.7C54.68,42.47 54.54,42.24 54.4,42.02C53.9,42.2 53.4,42.38 52.9,42.56"/>
	<path class="st0" d="M40.59,54.9C40.53,54.72 40.24,54.63 40.12,54.55C39.28,55.14 38.9,55.87 39.08,56.53C39.13,56.71 39.43,57 39.56,56.97C40.14,56.85 40.81,55.5 40.59,54.9"/>
	<path class="st0" d="M19.62,61.15C19.79,61.22 20.07,61.13 20.27,61.04C20.34,61 20.35,60.74 20.33,60.59C20.25,60.11 20.14,59.64 20.01,59.03C19.72,59.34 19.52,59.54 19.34,59.75C18.97,60.17 19.11,60.93 19.62,61.15"/>
	<path class="st0" d="M10.65,62.53C10.87,62.69 11.11,62.86 11.51,63.14C11.37,61.84 10.95,61.35 10.01,61.17C9.88,61.14 9.63,61.25 9.58,61.36C9.53,61.47 9.61,61.72 9.71,61.81C10,62.08 10.33,62.29 10.65,62.53"/>
	<path class="st0" d="M28.49,69.67C28.48,69.41 28.57,69.05 28.43,68.92C28.24,68.73 27.88,68.73 27.6,68.65C27.54,68.75 27.48,68.86 27.42,68.96C27.73,69.28 28.05,69.59 28.36,69.91C28.4,69.83 28.45,69.75 28.49,69.67"/>
	<path class="st0" d="M24.37,56.12C24.34,56.22 24.57,56.5 24.64,56.49C24.83,56.46 25.06,56.34 25.17,56.19C25.31,55.99 25.35,55.72 25.43,55.49C25.2,55.52 24.93,55.51 24.72,55.62C24.56,55.71 24.41,55.93 24.37,56.12"/>
	<path class="st0" d="M45.04,49.93L45.45,50.46L55.3,38.89L53.53,37.22L53.24,37.32C47.81,39.15 45.44,43.78 43.86,48.02L43.76,48.28L44.49,49.22L44.49,49.22C44.68,49.67 44.84,49.89 45.04,49.93"/>
	<path class="st0" d="M58.32,71.69C57.79,71.76 57.26,71.83 56.73,71.89C56.56,71.81 56.4,71.73 56.23,71.65C56.35,72.25 56.47,72.86 56.55,73.28C56.93,73.15 56.93,73.15 57.7,74.32C58.19,74.2 58.65,74 58.16,73.44C57.58,72.78 57.64,72.26 58.32,71.69"/>
	<path class="st0" d="M56.21,57.86C56.46,57.89 56.94,57.67 57.28,57.49C57.42,57.41 57.54,57.09 57.55,56.92C57.61,56.37 57.61,55.84 57.64,55.16C57.06,55.64 56.67,55.96 56.3,56.28C55.57,56.92 55.49,57.8 56.21,57.86"/>
	<path class="st0" d="M40.97,61.52C40.77,61.54 40.35,61.76 40.23,61.91C40.1,62.07 40.13,62.33 40.26,62.41C40.61,62.62 41.06,62.76 41.47,62.92C41.77,63.03 42.08,63.14 42.6,63.34C42.87,61.82 42.4,61.37 40.97,61.52"/>
	<path class="st0" d="M41.6,67.25C42.09,66.3 42.09,66.3 40.75,66.07C40.46,67.34 40.46,67.34 41.6,67.25"/>
	<path class="st0" d="M54.8,69.68C55.29,69.14 55.78,68.6 56.27,68.05L55.96,67.79C55.49,68.35 55.02,68.91 54.55,69.47C54.64,69.54 54.72,69.61 54.8,69.68"/>
	<path class="st0" d="M65.1,63.61C64.3,63.98 64.85,64.6 64.84,65.09C64.84,65.14 65.2,65.2 65.36,65.25C65.26,64.62 65.18,64.13 65.1,63.61"/>
	<path class="st0" d="M83.95,76.69C83.5,76.54 83.11,76.42 82.73,76.29C83.08,77.13 83.34,77.19 83.95,76.69"/>
	<path class="st0" d="M58.3,80.83C58.9,81.02 59.5,81.2 60.1,81.39C60.12,81.31 60.14,81.22 60.16,81.14C59.56,80.97 58.95,80.81 58.34,80.64C58.33,80.7 58.31,80.77 58.3,80.83"/>
	<path class="st0" d="M51.35,80.61C51.36,80.35 51.37,80.11 51.39,79.61C50.89,79.99 50.57,80.23 50.32,80.42C50.68,80.48 51,80.54 51.35,80.61"/>
	<path class="st0" d="M94.94,61.92C94.88,61.91 94.8,61.75 94.8,61.65C94.79,61.32 94.85,60.98 94.81,60.65C94.75,60.13 95.19,59.99 95.46,59.62C95.61,60.42 95.63,61.13 95.26,61.79C95.22,61.88 95.05,61.93 94.94,61.92M94.74,68.9C94.49,68.54 94.36,68.34 94.22,68.14C94.24,68.1 94.25,68.05 94.26,68.01C94.49,68.09 94.73,68.14 94.91,68.28C94.96,68.32 94.82,68.6 94.74,68.9M93.72,66.14C93.95,65.91 94.16,65.69 94.44,65.41C94.48,65.51 94.58,65.71 94.55,65.73C94.31,65.9 94.2,66.4 93.72,66.14M93.35,51.98C93.83,52.11 93.89,52.26 93.6,52.74C93.52,52.5 93.44,52.27 93.35,51.98M90.34,70.79C89.87,70.32 89.4,70.26 88.94,70.6C88.86,70.66 88.84,70.81 88.8,70.91C88.68,71.26 88.55,71.6 88.44,71.95C88.38,72.11 88.34,72.28 88.28,72.49C87.84,72.31 87.41,72.14 86.98,71.96C86.98,71.92 86.99,71.87 87,71.83C87.18,71.86 87.37,71.88 87.54,71.93C87.77,72.01 87.95,72.02 88.02,71.72C88.03,71.66 88.14,71.63 88.2,71.58C88.26,71.54 88.38,71.49 88.38,71.45C88.37,71.35 88.33,71.25 88.26,71.17C88.15,71.03 88.01,70.9 87.88,70.77C87.92,70.74 87.96,70.7 87.99,70.67C88.1,70.77 88.21,70.87 88.44,71.08C88.15,70.34 88.81,70.36 89.04,70.05C89.46,69.48 89.74,70.42 90.26,70.13C90.2,69.94 90.13,69.72 90.06,69.5C90.09,69.47 90.12,69.44 90.16,69.41C90.25,69.52 90.37,69.62 90.44,69.75C90.54,69.94 90.68,70.14 90.67,70.34C90.66,70.49 90.46,70.64 90.34,70.79M61.99,52.29C62,52.31 62.01,52.33 62.02,52.36C62,52.35 61.99,52.34 61.97,52.33C61.97,52.31 61.98,52.3 61.99,52.29M84.99,34.56C84.89,33.71 84.8,32.92 84.68,31.88C84.94,31.96 85.52,32.08 85.52,32.16C85.47,32.97 86.34,34.02 84.99,34.56M33.09,71.12C33.67,71.15 34.27,70.83 34.86,70.66C34.9,70.77 34.94,70.89 34.98,71C34.22,71.21 33.45,71.42 32.65,71.64C32.6,71.53 32.58,71.41 32.63,71.28C32.66,71.19 32.68,71.12 32.68,71.05C32.82,71.09 32.95,71.12 33.09,71.12M27.43,76.34C27.24,75.49 27.62,75 28.65,74.93C28.14,75.38 28.42,76.35 27.43,76.34M31.24,72.24C31.28,72.23 31.3,72.22 31.34,72.21C31.33,72.22 31.32,72.23 31.32,72.25ZM22.04,74.78C21.52,75.19 21,75.6 20.49,76.02C20.46,75.97 20.42,75.92 20.39,75.87C20.46,75.73 20.53,75.58 20.6,75.44C20.07,75.71 19.55,75.99 19.04,76.29C18.49,76.62 17.96,77.07 17.48,77.58C17.47,77.62 17.47,77.65 17.46,77.69C17.45,77.68 17.43,77.66 17.42,77.64C16.48,78.66 15.73,79.94 15.45,81.12C14.7,84.32 13.33,85.62 11.19,84.95C10.27,84.67 9.52,83.08 8.85,81.68C8.6,81.14 8.35,80.61 8.09,80.15C7.33,78.77 6.73,77.38 6.32,76C6.17,75.51 5.98,74.98 5.78,74.45C5.25,72.98 4.64,71.32 5.09,70.46C5.46,69.74 5.95,69.26 6.53,69.03C7.87,68.5 9.56,69.32 10.75,70.11C11.33,70.49 12.08,70.77 12.87,70.94C12.29,71.25 11.53,71.3 11.09,71.92C11.47,71.78 11.87,71.67 12.23,71.48C12.53,71.34 12.76,71.12 13.02,71.55C13.28,71.98 13.56,71.84 13.83,71.52C14.09,71.2 14.21,70.9 14.14,70.61C14.21,70.47 14.29,70.32 14.37,70.18C14.44,70.21 14.52,70.24 14.6,70.27C14.55,70.31 14.49,70.34 14.45,70.39C14.61,70.41 14.76,70.43 14.92,70.45C14.85,70.68 14.79,70.92 14.73,71.15C15.4,71.15 16.07,71.08 16.67,70.9C18.34,70.41 20.38,69.54 22.26,68.7C23.75,68.03 25.3,67.34 26.86,66.82C27.61,66.56 28.83,66.74 29.7,67.17C29.6,66.92 29.5,66.67 29.41,66.43C29.52,66.47 29.63,66.51 29.74,66.56L29.92,66.36C30.09,66.55 30.27,66.71 30.45,66.88C30.62,66.66 30.83,66.46 30.93,66.21C31.03,65.95 31.04,65.65 31.1,65.25C31.4,65.67 31.62,65.99 31.82,66.28C31.05,67.25 32.41,67 32.45,67.56C32.37,67.61 32.23,67.7 32.06,67.79C32.23,68.16 32.67,68.56 32,68.85C31.76,68.54 31.54,68.27 31.32,67.99C31.21,68.04 31.11,68.09 31.01,68.14C31.11,68.58 31.1,69.13 31.36,69.44C31.58,69.7 32.12,69.7 32.58,69.83C32.62,70.48 32.03,70.15 31.64,70.33C31.26,70.22 30.86,70.12 30.38,70C30.41,70.35 30.46,70.66 30.46,70.96C30.38,71.01 30.29,71.06 30.21,71.11C29.99,71.25 29.78,71.36 29.58,71.49C29.57,71.48 29.57,71.48 29.56,71.47C29.29,71.17 29.05,70.84 28.8,70.52C28.75,70.57 28.69,70.61 28.64,70.66C28.79,71.13 28.92,71.5 29.06,71.78C28.77,71.94 28.49,72.09 28.2,72.22C28.07,72.28 27.93,72.34 27.8,72.39C28.29,72.31 28.78,72.22 29.26,72.11C29.3,72.16 29.35,72.2 29.4,72.24C28.82,72.33 28.25,72.43 27.66,72.45C26.82,72.81 25.96,73.16 25.12,73.49C24.05,73.92 22.96,74.36 21.88,74.84C21.93,74.82 21.98,74.81 22.04,74.78M16.32,81.46C16.25,81.34 16.18,81.22 16.12,81.1C16.78,80.76 17.44,80.43 18.11,80.09C18.16,80.19 18.21,80.28 18.27,80.38C17.62,80.74 16.97,81.1 16.32,81.46M8.59,84.45C8.57,84.38 8.54,84.3 8.52,84.22C8.91,84.14 9.29,84 9.67,84.02C9.77,84.03 9.83,84.55 9.97,85.04C9.32,84.76 8.95,84.61 8.59,84.45M6.1,82.11C6.21,81.59 6.31,81.1 6.45,80.46C6.58,80.56 6.91,80.75 6.89,80.8C6.7,81.26 7,82.06 6.1,82.11M4.01,75.16C3.93,75.21 3.67,75.05 3.58,74.92C3.27,74.47 3.05,73.94 2.7,73.52C2.15,72.86 2.64,72.27 2.68,71.51C3.6,72.48 4.27,73.44 4.35,74.7C4.36,74.86 4.17,75.08 4.01,75.16M17.33,67.01C17.83,67.41 18.34,67.8 18.84,68.2C18.8,68.26 18.76,68.31 18.73,68.36C18.21,67.98 17.69,67.6 17.18,67.22C17.23,67.15 17.28,67.08 17.33,67.01M29.44,65.76C29.44,65.76 29.43,65.75 29.43,65.75C29.43,65.75 29.43,65.75 29.43,65.75C29.44,65.75 29.44,65.75 29.44,65.76M30.4,62.39C30.67,62.8 30.84,63.04 30.99,63.29C31.21,63.62 31.44,63.95 31.62,64.3C31.69,64.43 31.67,64.69 31.58,64.78C31.49,64.87 31.22,64.88 31.1,64.81C30.27,64.3 30.06,63.67 30.4,62.39M31.45,59.2C32.11,59.63 32.11,59.63 31.79,60.67C31.05,59.86 31.05,59.86 31.45,59.2M78.56,24.41C78.54,24.64 78.4,24.92 78.25,25.08C78.15,25.19 77.68,25.08 77.48,24.94C76.77,24.4 76.16,23.72 75.42,23.26C75.09,23.06 74.89,22.82 74.76,22.56C71.91,21.56 67.83,21.1 64.75,22.29L64.35,22.45C50.99,27.7 41.87,36.05 36.45,47.97C35.49,50.08 34.45,52.18 33.27,54.17C33.51,54.17 33.75,54.18 33.99,54.18C33.7,54.37 33.4,54.43 33.1,54.45C30.39,58.91 26.89,62.77 21.72,64.81C20.55,65.27 19.3,65.63 18,65.88C16.57,66.17 13.87,66.51 11.67,65.76C11.58,65.59 11.35,65.46 10.83,65.2C10.84,65.31 10.85,65.41 10.85,65.5C6.97,64.21 4.06,64.9 1.9,67.62C-0.67,70.86 -0.63,74.4 2.02,77.85C2.97,79.09 3.64,80.58 3.8,81.85C4.37,86.15 6.83,88.69 10.94,89.17C14.93,89.65 17.77,87.61 19.19,83.25C19.57,82.1 20.17,80.5 21.08,79.95C29.89,74.61 38.6,73.61 47.06,76.91C46.98,77.28 47.14,77.73 46.95,78.1C47.48,77.85 47.76,77.55 47.81,77.2C48.45,77.46 49.08,77.71 49.72,77.94C49.75,77.3 49.82,76.66 49.74,76.04C49.62,75.06 50.23,74.61 50.84,74.05L50.77,74.03C48.3,73.23 45.74,72.39 43.14,71.89L42.61,71.79C35.22,70.37 35.22,70.37 32.9,63.82C32.57,62.87 33.14,61.25 33.73,60.16C35.52,56.86 37.45,53.56 39.32,50.37C40.01,49.19 40.7,48.01 41.39,46.82C42.49,44.93 43.67,43.17 44.94,41.53C44.62,41.37 44.29,41.21 43.92,41.03C44.13,40.86 44.53,40.45 44.59,40.5C44.83,40.67 45.16,40.75 45.47,40.87C46.99,38.98 48.62,37.23 50.41,35.63C50.51,34.8 50.61,33.98 50.71,33.16C50.88,33.18 51.04,33.21 51.21,33.24C51.22,33.81 51.29,34.39 51.21,34.95C53.16,33.3 55.27,31.78 57.59,30.4C56.82,36.28 56.94,41.78 57.94,46.91C58.25,46.58 58.58,46.23 58.96,46.12C59.34,46.01 59.85,46.38 60.34,46.54C59.56,48.06 59.83,49.26 61.01,50.09C61.22,50.23 61.6,50.17 61.9,50.17C62.24,50.18 62.58,50.18 62.92,50.18C61.29,45.22 60.75,40.13 61.34,34.95C61.55,33.15 61.99,31.54 62.63,30.18C62.6,30.08 62.58,29.98 62.55,29.89C62.67,29.8 62.81,29.69 62.94,29.58C63.21,29.09 63.5,28.62 63.83,28.2C63.78,27.81 63.48,27.45 62.9,27.15C62.38,26.88 61.86,26.62 61.31,26.44C60.34,26.11 60.33,25.6 60.95,24.8C61.92,26.22 62.94,27.07 64.65,26.56C64.92,26.48 65.16,26.54 65.34,26.69C65.87,26.28 66.43,25.94 67.04,25.69C70.05,24.51 73.76,25.5 77.23,28.4C88.19,37.56 92.99,49.3 91.5,63.28C91.06,67.36 89.35,70.1 86.55,71.2C84.05,72.19 80.73,71.82 76.93,70.16C76.53,69.77 76.02,69.32 75.44,68.8C73.79,67.33 71.53,65.32 69.77,62.99C66.82,59.09 64.63,55.09 63.18,50.99C63.1,51.08 63.02,51.17 62.96,51.26C62.89,51.37 62.83,51.49 62.77,51.6C62.61,51.61 62.46,51.63 62.33,51.7C62.28,51.73 62.24,51.79 62.19,51.83C62.3,51.6 62.42,51.32 62.61,50.91C61.04,52.23 60.54,50.6 59.59,50.3C57.87,49.76 59.92,48.3 58.81,47.28C58.59,47.44 58.37,47.61 58.13,47.78C58.67,50.31 59.42,52.76 60.4,55.12C60.58,55.17 60.74,55.24 60.84,55.33C60.96,55.44 60.94,55.82 60.84,56.1C63,60.92 66.11,65.37 70.15,69.5C70.08,69.44 70,69.37 69.93,69.32C69.8,69.23 69.51,69.18 69.45,69.25C69.34,69.38 69.24,69.65 69.3,69.79C69.82,70.91 70.76,71.57 71.95,72.14C71.83,71.78 71.84,71.42 71.78,71.1C73.17,72.4 74.64,73.68 76.22,74.91C68.47,77 61.37,77.03 54.12,75.04C54.14,74.81 54.17,74.57 54.19,74.35C54.14,74.31 54.09,74.28 54.04,74.24C53.92,74.47 53.79,74.69 53.66,74.91C53.2,74.78 52.75,74.67 52.3,74.52L51.51,74.27C51.72,75.75 51.68,77.11 51.1,78.41C58.33,80.79 65.68,81.29 73.33,79.91C73.33,79.91 73.32,79.9 73.32,79.9C73.44,79.85 73.57,79.8 73.69,79.75C73.7,79.78 73.71,79.81 73.72,79.84C76.26,79.36 78.84,78.68 81.45,77.79C81.38,77.78 81.32,77.77 81.24,77.76C81.88,77.05 82.36,76.48 82.89,75.94C83.05,75.77 83.38,75.55 83.5,75.61C83.79,75.76 84.16,76.03 84.23,76.32C84.26,76.47 84.26,76.63 84.23,76.78C84.23,76.77 84.23,76.77 84.23,76.77C84.92,76.5 85.61,76.22 86.3,75.92C88.59,74.93 90.53,73.15 92.41,71.42C93.26,70.65 94.13,69.85 95.01,69.14L95.13,69.05L95.17,68.9C99.79,54.47 91.01,32.17 78.56,24.41"/>
	<path class="st0" d="M32.08,29.75C32.23,29.82 31.97,30.55 32.61,30.35C32.15,30.59 31.68,30.84 31.21,31.08C31.2,31.04 31.18,31 31.16,30.95C31.45,30.57 31.75,30.19 32.08,29.75M31.83,26.6C31.91,26.59 31.99,26.59 32.07,26.59C32.07,26.75 32.03,26.93 32.08,27.08C32.14,27.29 32.23,27.54 32.38,27.68C32.69,27.96 32.87,29.05 32.6,29.35C32.55,29.41 32.45,29.45 32.38,29.45C32.32,29.45 32.23,29.37 32.21,29.31C32.07,28.93 31.93,28.55 31.83,28.27ZM23.79,35.73C23.78,35.82 23.77,35.91 23.76,35.99C23.36,36.02 22.96,36.1 22.58,35.97L22.94,36.6C23.02,36.82 23.23,37.45 23.44,37.74L23.44,37.74L24.23,38.84L24.57,39.27C25.7,40.53 27.2,41.31 29.28,41.72C30.46,41.95 31.37,42.24 32.21,42.65L32.52,42.76C32.88,42.84 33.15,42.96 33.36,43.13L34.33,43.56L34.51,43.05C34.6,42.78 34.75,42.52 34.91,42.25C35.16,41.84 35.41,41.41 35.5,40.87L35.56,40.56L35.3,40.38C34.22,39.6 33,39.23 31.82,38.88C31.49,38.78 31.16,38.68 30.83,38.58C30.77,38.56 30.72,38.54 30.66,38.52C30.92,38.27 31.15,38 31.37,37.72C31.3,37.56 31.23,37.41 31.15,37.25C31.35,37.22 31.5,37.24 31.61,37.33C31.69,37.2 31.78,37.09 31.85,36.94C32.1,36.39 32.27,35.83 32.38,35.2C33.47,36.23 34.81,37.11 36.53,37.11C36.95,37.11 37.38,37.06 37.82,36.96L37.97,36.92L38.07,36.8C39.23,35.5 40.3,34.11 41.26,32.69L41.36,32.55L41.35,32.39C41.31,31.16 40.87,30.09 40.35,29.01C41.74,29.22 43.08,29.04 44.45,28.46C46.47,27.6 47.79,26.12 48.37,24.08C48.47,23.72 48.56,23.36 48.62,23.02L48.85,22.75L48.65,22.82C48.96,20.82 48.56,19.07 47.45,17.51C47.2,17.15 46.9,16.82 46.55,16.51L43.93,15.3L43.15,16.91C42.8,16.5 42.48,16.12 42.35,15.68L42.22,15.29L41.82,15.34C41.02,15.44 40.34,15.33 39.8,14.94C40.46,14.98 41.1,14.93 41.72,14.81L42.16,14.72L42.12,14.27C42.09,14 42.07,13.73 42.05,13.46C42.04,13.31 42.03,13.17 42.02,13.02C42.7,13.16 43.34,13.37 43.97,13.68L44.24,13.81L44.49,13.63C45.53,12.87 46.19,11.83 46.68,10.82C46.74,10.92 46.79,11.02 46.84,11.12C46.93,11.3 47.01,11.47 47.12,11.64C48.5,13.82 50.42,15.03 52.52,15.03C53.93,15.03 55.36,14.47 56.67,13.42C57.25,12.95 57.59,12.34 57.89,11.71C58.3,12.8 58.5,13.7 58.54,14.56C58.62,16.51 59.2,18.33 60.33,20.11L60.53,20.42L61.16,20.25C61.92,20.05 62.7,19.84 63.44,19.43L63.97,19.15L63.59,18.68C62.54,17.39 62.04,16.2 62.01,14.94L62.05,14.9L62,14.48C62.05,13.65 61.84,12.9 61.62,12.17L61.58,12.07C61.48,11.87 61.44,11.74 61.45,11.62L61.46,11.51L61.43,11.41C61.36,11.2 61.31,10.99 61.25,10.78C61.14,10.34 61.03,9.89 60.8,9.45L60.68,9.23C60.04,8 59.37,6.73 58.39,5.65L58.21,5.53C58.13,5.49 58.06,5.41 57.89,5.17C57.15,4.36 56.12,3.4 54.67,3.03L53.99,2.83C53.82,2.81 53.65,2.78 53.48,2.76C52.87,2.67 52.27,2.58 51.56,2.64L51.15,2.69L50.77,2.75L49.89,3.32L50.5,3.75C50.61,3.82 50.73,3.89 50.85,3.95C51.01,4.02 51.11,4.07 51.16,4.15L51.23,4.23C51.53,4.5 51.84,4.7 52.15,4.9C52.42,5.08 52.68,5.25 52.91,5.45C53.93,6.34 54.58,7.41 54.89,8.72C55.16,9.82 54.87,10.64 54.03,11.14C52.89,11.83 51.87,11.78 51,10.97C49.85,9.91 49.1,8.52 48.69,6.72C48.57,6.21 48.46,5.61 48.55,5.05L48.57,4.9L48.37,4.44C47.92,3.36 47.45,2.24 46.27,1.54C46.05,1.42 45.85,1.27 45.65,1.13C45.15,0.78 44.59,0.38 43.81,0.22C43.18,0.1 42.57,0.08 41.98,0.06C41.65,0.05 41.31,0.04 41.03,0.02C40.47,-0.09 39.95,0.24 39.65,0.49C39.43,0.68 39.32,0.89 39.33,1.12C39.35,1.46 39.62,1.64 39.78,1.74C39.79,1.75 39.8,1.76 39.81,1.77L39.83,2.28L40.45,2.09C40.45,2.09 40.48,2.1 40.55,2.16C41.56,2.89 42.42,3.81 43.16,4.95C43.69,5.98 43.92,6.94 43.88,7.9C43.79,9.6 43.16,10.64 41.9,11.2C41.44,11.41 40.97,11.52 40.49,11.55L39.43,11.63L39.77,11.98L35.95,12.48C35.99,11.29 36.22,10.67 36.73,10.29L37.1,10.01L36.86,9.62C36.51,9.08 36.26,8.45 36.09,7.7C36.03,7.39 35.98,7.07 35.94,6.75L35.89,6.39L35.71,6.01L34.99,5.9L34.3,7.24C33.81,8.86 33.79,10.54 34.29,12.43C34.31,12.5 34.35,12.55 34.38,12.61C34.39,12.64 34.41,12.68 34.42,12.66L34.37,12.84L34.46,13.01C34.57,13.23 34.68,13.45 34.78,13.68C35.72,15.77 37.22,18.24 40.62,18.79L42.62,18.74L42.76,18.71C42.92,18.66 43.07,18.63 43.21,18.62L43.34,18.8L43.43,18.62C43.77,18.65 44.07,18.82 44.36,19.13C44.41,19.17 44.46,19.22 44.48,19.23C45.38,20.21 45.58,21.36 45.1,23.05C45.07,23.33 44.97,23.57 44.78,23.82C44.66,24.01 44.53,24.18 44.39,24.33L43.15,25.74L45.18,25.05C44.07,25.84 43.06,26.03 42.13,25.62L41.91,25.52L41.7,25.63C41.44,25.77 41.19,25.75 40.85,25.57L40.75,25.53C40.2,25.38 39.79,24.96 39.32,24.48C38.68,23.84 38.41,22.99 38.13,22.09C37.96,21.57 37.79,21.03 37.53,20.51L37.42,20.28L36.6,20.15L36.45,20.51C35.93,21.77 35.73,23.09 35.53,24.37L35.46,24.89L35.45,25.12L35.78,27.56L35.84,27.73C36.04,28.13 36.25,28.53 36.46,28.93C36.91,29.8 37.38,30.7 37.78,31.6C38.06,32.23 38,32.77 37.6,33.23C37.26,33.63 36.79,33.61 36.01,33.5C35.49,33.43 35.11,33.05 34.89,32.75C34.38,32.06 34.13,31.07 34.26,30.16L34.26,29.91L34.01,29.88L34.25,29.85L34.19,29.41C33.66,27.28 32.16,25.93 31.02,25.07C30.92,25.01 30.66,24.77 30.55,24.68L30.38,24.58C30.24,24.53 29.51,24.18 29.38,24.08L29.03,23.93C28.78,23.85 27.87,23.74 27.59,23.79L26.61,23.73C26.58,23.73 23.63,24.06 23.44,24.89L23.37,25.23L23.65,25.42C24.36,25.89 24.94,26.39 25.47,26.95C25.7,27.16 25.92,27.37 26.14,27.57C26.41,28.05 26.6,28.32 26.74,28.47C26.79,28.57 26.86,28.71 26.95,28.87C27.15,29.22 27.48,29.82 27.55,30.03L27.6,30.14C27.7,30.3 27.8,30.5 27.9,30.68C28.05,30.5 28.09,30.24 28.03,29.88C27.93,29.28 28.33,29.34 28.72,29.47C28.75,30.61 28.75,30.61 29.07,30.68C28.95,31.01 28.77,31.48 28.59,31.95C28.51,31.82 28.43,31.69 28.35,31.56C28.35,31.56 28.34,31.56 28.33,31.55C28.66,32.3 28.94,33.13 29.02,34.03C29.13,35.38 28.52,36.28 27.4,36.47L26.6,36.43L26.54,36.44C26.18,36.51 25.87,36.36 25.49,36.18C25.33,36.11 25.17,36.04 25.01,35.98L21.93,33.73L22.48,35.65C22.91,35.68 23.35,35.71 23.79,35.73"/>
</svg>